{
	"asset":{
		"generator":"Khronos glTF Blender I/O v3.5.30",
		"version":"2.0"
	},
	"scene":0,
	"scenes":[
		{
			"name":"Scene.003",
			"nodes":[
				3,
				7
			]
		}
	],
	"nodes":[
		{
			"mesh":0,
			"name":"Cylinder",
			"rotation":[
				0.009044533595442772,
				-0.0011432872852310538,
				0.00031584518728777766,
				0.9999583959579468
			],
			"scale":[
				0.15420860052108765,
				0.15420860052108765,
				0.15420860052108765
			],
			"translation":[
				0.1372811645269394,
				0.10040514916181564,
				0.02071448042988777
			]
		},
		{
			"mesh":1,
			"name":"St\u00e4nder",
			"scale":[
				0.15420860052108765,
				0.15420860052108765,
				0.15420860052108765
			],
			"translation":[
				0.023178817704319954,
				0.22977811098098755,
				0.0015212028520181775
			]
		},
		{
			"mesh":2,
			"name":"St\u00e4nder.001",
			"rotation":[
				-0.06833259016275406,
				0.008637677878141403,
				-0.0023862493690103292,
				0.9976223707199097
			],
			"scale":[
				0.15420860052108765,
				0.15420860052108765,
				0.15420860052108765
			],
			"translation":[
				0.13725657761096954,
				0.18483363091945648,
				0.020957382395863533
			]
		},
		{
			"children":[
				0,
				1,
				2
			],
			"name":"Empty.002",
			"rotation":[
				0,
				-0.7071068286895752,
				0,
				0.7071068286895752
			],
			"scale":[
				6.484722137451172,
				6.484722137451172,
				6.484722137451172
			]
		},
		{
			"mesh":3,
			"name":"Gong",
			"rotation":[
				0,
				-0.7071067094802856,
				0,
				0.7071068286895752
			],
			"translation":[
				-0.05325069651007652,
				-0.5819321870803833,
				0
			]
		},
		{
			"mesh":4,
			"name":"St\u00e4nder.002",
			"rotation":[
				0,
				-0.7071067094802856,
				0,
				0.7071068286895752
			],
			"translation":[
				-0.023324836045503616,
				-0.03186464309692383,
				-0.7034780383110046
			]
		},
		{
			"mesh":5,
			"name":"St\u00e4nder.003",
			"rotation":[
				0,
				-0.7071067094802856,
				0,
				0.7071068286895752
			],
			"translation":[
				-0.023324837908148766,
				-0.03186440467834473,
				0.7078022360801697
			]
		},
		{
			"children":[
				4,
				5,
				6
			],
			"name":"Empty.006",
			"translation":[
				0.021510634571313858,
				2.1352386474609375,
				0
			]
		}
	],
	"animations":[
		{
			"channels":[
				{
					"sampler":0,
					"target":{
						"node":7,
						"path":"translation"
					}
				},
				{
					"sampler":1,
					"target":{
						"node":7,
						"path":"rotation"
					}
				}
			],
			"name":"Empty.006Action",
			"samplers":[
				{
					"input":32,
					"interpolation":"STEP",
					"output":33
				},
				{
					"input":34,
					"interpolation":"LINEAR",
					"output":35
				}
			]
		},
		{
			"channels":[
				{
					"sampler":0,
					"target":{
						"node":4,
						"path":"rotation"
					}
				}
			],
			"name":"GongAction.002",
			"samplers":[
				{
					"input":34,
					"interpolation":"LINEAR",
					"output":36
				}
			]
		}
	],
	"materials":[
		{
			"doubleSided":true,
			"emissiveFactor":[
				0.5,
				0.5,
				0.5
			],
			"name":"Material",
			"pbrMetallicRoughness":{
				"baseColorFactor":[
					0,
					0,
					0,
					1
				],
				"metallicFactor":0,
				"roughnessFactor":0
			}
		},
		{
			"doubleSided":true,
			"emissiveFactor":[
				0.20000000298023224,
				0.20000000298023224,
				0.20000000298023224
			],
			"name":"Material.001",
			"pbrMetallicRoughness":{
				"baseColorFactor":[
					0,
					0,
					0,
					1
				],
				"metallicFactor":0
			}
		},
		{
			"doubleSided":true,
			"emissiveFactor":[
				1,
				1,
				1
			],
			"emissiveTexture":{
				"index":0
			},
			"name":"Material.007",
			"pbrMetallicRoughness":{
				"baseColorFactor":[
					0,
					0,
					0,
					1
				],
				"metallicFactor":0
			}
		}
	],
	"meshes":[
		{
			"name":"Cylinder",
			"primitives":[
				{
					"attributes":{
						"POSITION":0,
						"TEXCOORD_0":1,
						"NORMAL":2
					},
					"indices":3,
					"material":0
				},
				{
					"attributes":{
						"POSITION":4,
						"TEXCOORD_0":5,
						"NORMAL":6
					},
					"indices":7,
					"material":0
				}
			]
		},
		{
			"name":"Cube.003",
			"primitives":[
				{
					"attributes":{
						"POSITION":8,
						"TEXCOORD_0":9,
						"NORMAL":10
					},
					"indices":11,
					"material":1
				}
			]
		},
		{
			"name":"Cube.000",
			"primitives":[
				{
					"attributes":{
						"POSITION":12,
						"TEXCOORD_0":13,
						"NORMAL":14
					},
					"indices":15,
					"material":1
				}
			]
		},
		{
			"name":"Circle",
			"primitives":[
				{
					"attributes":{
						"POSITION":16,
						"TEXCOORD_0":17,
						"NORMAL":18
					},
					"indices":19,
					"material":2
				},
				{
					"attributes":{
						"POSITION":20,
						"TEXCOORD_0":21,
						"NORMAL":22
					},
					"indices":23,
					"material":0
				}
			]
		},
		{
			"name":"Cube.006",
			"primitives":[
				{
					"attributes":{
						"POSITION":24,
						"TEXCOORD_0":25,
						"NORMAL":26
					},
					"indices":27,
					"material":1
				}
			]
		},
		{
			"name":"Cube.007",
			"primitives":[
				{
					"attributes":{
						"POSITION":28,
						"TEXCOORD_0":29,
						"NORMAL":30
					},
					"indices":31,
					"material":1
				}
			]
		}
	],
	"textures":[
		{
			"sampler":0,
			"source":0
		}
	],
	"images":[
		{
			"bufferView":20,
			"mimeType":"image/png",
			"name":"gong tex-01"
		}
	],
	"accessors":[
		{
			"bufferView":0,
			"componentType":5126,
			"count":60,
			"max":[
				0.017156409099698067,
				0.5139368176460266,
				0.02010946348309517
			],
			"min":[
				-0.017484677955508232,
				-0.15162117779254913,
				-0.019890617579221725
			],
			"type":"VEC3"
		},
		{
			"bufferView":1,
			"componentType":5126,
			"count":60,
			"type":"VEC2"
		},
		{
			"bufferView":2,
			"componentType":5126,
			"count":60,
			"type":"VEC3"
		},
		{
			"bufferView":3,
			"componentType":5123,
			"count":96,
			"type":"SCALAR"
		},
		{
			"bufferView":4,
			"componentType":5126,
			"count":52,
			"max":[
				0.04804206266999245,
				-0.05228505656123161,
				0.05487629771232605
			],
			"min":[
				-0.047385524958372116,
				-0.13023988902568817,
				-0.05531398952007294
			],
			"type":"VEC3"
		},
		{
			"bufferView":5,
			"componentType":5126,
			"count":52,
			"type":"VEC2"
		},
		{
			"bufferView":6,
			"componentType":5126,
			"count":52,
			"type":"VEC3"
		},
		{
			"bufferView":7,
			"componentType":5123,
			"count":108,
			"type":"SCALAR"
		},
		{
			"bufferView":8,
			"componentType":5126,
			"count":1238,
			"max":[
				1.174638271331787,
				1.521475911140442,
				0.5899221897125244
			],
			"min":[
				-1.4752545356750488,
				-1.4802004098892212,
				-0.7078211307525635
			],
			"type":"VEC3"
		},
		{
			"bufferView":9,
			"componentType":5126,
			"count":1238,
			"type":"VEC2"
		},
		{
			"bufferView":10,
			"componentType":5126,
			"count":1238,
			"type":"VEC3"
		},
		{
			"bufferView":11,
			"componentType":5123,
			"count":2280,
			"type":"SCALAR"
		},
		{
			"bufferView":12,
			"componentType":5126,
			"count":400,
			"max":[
				0.03137901425361633,
				0.0611477792263031,
				0.005821332335472107
			],
			"min":[
				-0.03137901425361633,
				-0.0611477792263031,
				-0.005806192755699158
			],
			"type":"VEC3"
		},
		{
			"bufferView":13,
			"componentType":5126,
			"count":400,
			"type":"VEC2"
		},
		{
			"bufferView":14,
			"componentType":5126,
			"count":400,
			"type":"VEC3"
		},
		{
			"bufferView":15,
			"componentType":5123,
			"count":1056,
			"type":"SCALAR"
		},
		{
			"bufferView":16,
			"componentType":5126,
			"count":289,
			"max":[
				0.6350864768028259,
				0.14304596185684204,
				0.05471772700548172
			],
			"min":[
				-0.6350865960121155,
				-1.1271271705627441,
				-0.03174038976430893
			],
			"type":"VEC3"
		},
		{
			"bufferView":17,
			"componentType":5126,
			"count":289,
			"type":"VEC2"
		},
		{
			"bufferView":18,
			"componentType":5126,
			"count":289,
			"type":"VEC3"
		},
		{
			"bufferView":19,
			"componentType":5123,
			"count":1248,
			"type":"SCALAR"
		},
		{
			"bufferView":21,
			"componentType":5126,
			"count":97,
			"max":[
				0.6350864768028259,
				0.14304596185684204,
				0.05501466244459152
			],
			"min":[
				-0.6350865960121155,
				-1.1271271705627441,
				-0.02185513824224472
			],
			"type":"VEC3"
		},
		{
			"bufferView":22,
			"componentType":5126,
			"count":97,
			"type":"VEC2"
		},
		{
			"bufferView":23,
			"componentType":5126,
			"count":97,
			"type":"VEC3"
		},
		{
			"bufferView":24,
			"componentType":5123,
			"count":288,
			"type":"SCALAR"
		},
		{
			"bufferView":25,
			"componentType":5126,
			"count":216,
			"max":[
				0.4398665130138397,
				0.012052774429321289,
				0.08628630638122559
			],
			"min":[
				-0.01631307601928711,
				-0.5850902199745178,
				-0.08628634363412857
			],
			"type":"VEC3"
		},
		{
			"bufferView":26,
			"componentType":5126,
			"count":216,
			"type":"VEC2"
		},
		{
			"bufferView":27,
			"componentType":5126,
			"count":216,
			"type":"VEC3"
		},
		{
			"bufferView":28,
			"componentType":5123,
			"count":552,
			"type":"SCALAR"
		},
		{
			"bufferView":29,
			"componentType":5126,
			"count":216,
			"max":[
				0.01631307601928711,
				0.012052536010742188,
				0.08628637343645096
			],
			"min":[
				-0.43986642360687256,
				-0.5850905179977417,
				-0.08628635108470917
			],
			"type":"VEC3"
		},
		{
			"bufferView":30,
			"componentType":5126,
			"count":216,
			"type":"VEC2"
		},
		{
			"bufferView":31,
			"componentType":5126,
			"count":216,
			"type":"VEC3"
		},
		{
			"bufferView":32,
			"componentType":5123,
			"count":552,
			"type":"SCALAR"
		},
		{
			"bufferView":33,
			"componentType":5126,
			"count":1,
			"max":[
				0.041666666666666664
			],
			"min":[
				0.041666666666666664
			],
			"type":"SCALAR"
		},
		{
			"bufferView":34,
			"componentType":5126,
			"count":1,
			"type":"VEC3"
		},
		{
			"bufferView":35,
			"componentType":5126,
			"count":80,
			"max":[
				3.3333333333333335
			],
			"min":[
				0.041666666666666664
			],
			"type":"SCALAR"
		},
		{
			"bufferView":36,
			"componentType":5126,
			"count":80,
			"type":"VEC4"
		},
		{
			"bufferView":37,
			"componentType":5126,
			"count":80,
			"type":"VEC4"
		}
	],
	"bufferViews":[
		{
			"buffer":0,
			"byteLength":720,
			"byteOffset":0,
			"target":34962
		},
		{
			"buffer":0,
			"byteLength":480,
			"byteOffset":720,
			"target":34962
		},
		{
			"buffer":0,
			"byteLength":720,
			"byteOffset":1200,
			"target":34962
		},
		{
			"buffer":0,
			"byteLength":192,
			"byteOffset":1920,
			"target":34963
		},
		{
			"buffer":0,
			"byteLength":624,
			"byteOffset":2112,
			"target":34962
		},
		{
			"buffer":0,
			"byteLength":416,
			"byteOffset":2736,
			"target":34962
		},
		{
			"buffer":0,
			"byteLength":624,
			"byteOffset":3152,
			"target":34962
		},
		{
			"buffer":0,
			"byteLength":216,
			"byteOffset":3776,
			"target":34963
		},
		{
			"buffer":0,
			"byteLength":14856,
			"byteOffset":3992,
			"target":34962
		},
		{
			"buffer":0,
			"byteLength":9904,
			"byteOffset":18848,
			"target":34962
		},
		{
			"buffer":0,
			"byteLength":14856,
			"byteOffset":28752,
			"target":34962
		},
		{
			"buffer":0,
			"byteLength":4560,
			"byteOffset":43608,
			"target":34963
		},
		{
			"buffer":0,
			"byteLength":4800,
			"byteOffset":48168,
			"target":34962
		},
		{
			"buffer":0,
			"byteLength":3200,
			"byteOffset":52968,
			"target":34962
		},
		{
			"buffer":0,
			"byteLength":4800,
			"byteOffset":56168,
			"target":34962
		},
		{
			"buffer":0,
			"byteLength":2112,
			"byteOffset":60968,
			"target":34963
		},
		{
			"buffer":0,
			"byteLength":3468,
			"byteOffset":63080,
			"target":34962
		},
		{
			"buffer":0,
			"byteLength":2312,
			"byteOffset":66548,
			"target":34962
		},
		{
			"buffer":0,
			"byteLength":3468,
			"byteOffset":68860,
			"target":34962
		},
		{
			"buffer":0,
			"byteLength":2496,
			"byteOffset":72328,
			"target":34963
		},
		{
			"buffer":0,
			"byteLength":25308,
			"byteOffset":74824
		},
		{
			"buffer":0,
			"byteLength":1164,
			"byteOffset":100132,
			"target":34962
		},
		{
			"buffer":0,
			"byteLength":776,
			"byteOffset":101296,
			"target":34962
		},
		{
			"buffer":0,
			"byteLength":1164,
			"byteOffset":102072,
			"target":34962
		},
		{
			"buffer":0,
			"byteLength":576,
			"byteOffset":103236,
			"target":34963
		},
		{
			"buffer":0,
			"byteLength":2592,
			"byteOffset":103812,
			"target":34962
		},
		{
			"buffer":0,
			"byteLength":1728,
			"byteOffset":106404,
			"target":34962
		},
		{
			"buffer":0,
			"byteLength":2592,
			"byteOffset":108132,
			"target":34962
		},
		{
			"buffer":0,
			"byteLength":1104,
			"byteOffset":110724,
			"target":34963
		},
		{
			"buffer":0,
			"byteLength":2592,
			"byteOffset":111828,
			"target":34962
		},
		{
			"buffer":0,
			"byteLength":1728,
			"byteOffset":114420,
			"target":34962
		},
		{
			"buffer":0,
			"byteLength":2592,
			"byteOffset":116148,
			"target":34962
		},
		{
			"buffer":0,
			"byteLength":1104,
			"byteOffset":118740,
			"target":34963
		},
		{
			"buffer":0,
			"byteLength":4,
			"byteOffset":119844
		},
		{
			"buffer":0,
			"byteLength":12,
			"byteOffset":119848
		},
		{
			"buffer":0,
			"byteLength":320,
			"byteOffset":119860
		},
		{
			"buffer":0,
			"byteLength":1280,
			"byteOffset":120180
		},
		{
			"buffer":0,
			"byteLength":1280,
			"byteOffset":121460
		}
	],
	"samplers":[
		{
			"magFilter":9729,
			"minFilter":9987
		}
	],
	"buffers":[
		{
			"byteLength":122740,
			"uri":"data:application/octet-stream;base64,"
		}
	]
}
